<?xml version="1.0" encoding="UTF-8"?>
<svg id="Layer_2" data-name="Layer 2" xmlns="http://www.w3.org/2000/svg" viewBox="0 0 232.61 238.7">
  <defs>
    <style>
      .cls-1 {
        fill: #0d0e1f;
      }
    </style>
  </defs>
  <g id="Layer_1-2" data-name="Layer 1">
    <path class="cls-1" d="M157.99,13.77c-.5,0-.99,0-1.49-.03C142.48,13.31,129.42,7.28,116.91,0h0s0,0,0,0c0,0,0,0,0,0-12.56,7.19-25.66,13.13-39.69,13.47-.5.01-.99.02-1.49.02-12.5-.04-25.57-4.4-38.61-10.03h0s0,0,0,0L1.01,41.22l-.18.19-.83.87,1.01-1.06c1.96,2.24,3.85,4.5,5.65,6.81,8.73,11.2,15.17,23.31,15.13,37.17,0,.51-.01,1.02-.03,1.54-.45,11.91-5.73,24.93-10.81,37.51-4.97,12.32-9.77,24.29-10.69,35.36-.1,1.27-.16,2.52-.16,3.77-.07,20.7,13.37,38.18,28.89,45.44,9.34,4.37,19.5,5.07,30.15,5.78,7.95.53,16.2,1.07,24.08,3.37,11.79,3.44,22.59,10.79,32.88,19.35-.56.46-1.12.92-1.67,1.39.56-.47,1.11-.93,1.67-1.39h0c10.35-8.49,21.19-15.77,33.01-19.13,7.9-2.25,16.15-2.73,24.1-3.21,10.66-.64,20.82-1.27,30.19-5.58,15.57-7.16,29.13-24.55,29.2-45.24,0-1.24-.04-2.5-.14-3.77-.84-11.08-5.56-23.08-10.45-35.43-4.99-12.62-10.19-25.67-10.56-37.58-.02-.51-.02-1.03-.02-1.54.06-16.72,9.53-30.82,21.07-43.83L196.67,4c-13.07,5.54-26.17,9.81-38.68,9.77Z"/>
  </g>
</svg>