<?xml version="1.0" encoding="UTF-8"?>
<svg id="logo" xmlns="http://www.w3.org/2000/svg" width="863.47" height="596.16" viewBox="0 0 863.47 596.16">
  <g id="compact_logo">
    <g id="year_stack">
      <g id="y17">
        <g id="y58">
          <path id="y8" d="M474.01,549.13c0-5.99-4.76-9.86-11.98-9.86s-11.98,3.88-11.98,9.86,4.76,9.95,11.98,9.95,11.98-4.14,11.98-9.95M475.95,577.67c0-6.78-5.64-11.54-13.92-11.54s-13.92,4.76-13.92,11.54,5.55,11.45,13.92,11.45,13.92-4.58,13.92-11.45M440.19,577.93c0-7.14,4.67-13.04,12.86-15.33-6.78-2.11-10.92-6.87-10.92-13.74,0-9.95,8.72-16.65,19.91-16.65s19.91,6.69,19.91,16.65c0,6.87-4.14,11.63-9.86,13.74,7.14,2.29,11.8,8.19,11.8,15.33,0,11.63-9.78,18.23-21.85,18.23s-21.85-6.61-21.85-18.23"/>
          <path id="y5" d="M392.71,591.94v-12.6c5.2,6.78,10.31,9.78,17,9.78,8.46,0,14.09-4.85,14.09-12.07s-5.64-11.89-14.62-11.89c-4.23,0-9.16.88-14.62,4.23l4.76-36.03h28.8l.79,5.64.79,5.81-13.48-4.4h-10.48l-2.38,18.41c2.2-.44,4.67-.71,7.58-.71,12.07,0,20.79,7.49,20.79,18.67,0,11.8-8.55,19.38-21.93,19.38-6.08,0-11.63-1.32-17.09-4.23"/>
        </g>
        <polygon id="y7" points="468.34 464.46 448.61 464.46 435.04 469.39 437.33 462.87 439.27 457.41 479.17 457.41 479.17 457.76 456.53 509.38 457.94 519.07 444.38 519.07 468.34 464.46"/>
        <polygon id="y1" points="417.07 508.32 417.07 469.04 398.66 480.58 398.66 472.39 424.21 456.27 424.56 456.27 424.56 508.32 428.61 519.07 413.02 519.07 417.07 508.32"/>
      </g>
    </g>
    <polygon id="compact_K" points="581.66 457.74 571.37 475.4 527.89 515.39 527.89 480.26 536.43 457.74 502.85 457.74 511.39 480.26 511.39 571.1 502.85 593.62 536.43 593.62 527.89 571.1 527.89 525.87 574.09 574.59 583.02 593.62 614.27 593.62 545.75 520.83 614.07 457.74 581.66 457.74"/>
    <path id="compact_amp" d="M297.43,595.35c-29.26,0-51.33-22.07-51.33-51.33,0-19.73,10.42-37.11,27.25-45.51l-12.63-24.08v-18.77h71.28v20.01h-1.27l-.18-.15c-2.73-2.23-6.46-3.36-11.09-3.36h-36.45c-1.65,0-3.2-.36-4.62-1.07l1.69,3.25,9.62,19.4v16.05l-3.16,1.13c-14.84,5.06-23.35,17.13-23.35,33.11,0,20.18,14.4,34.83,34.24,34.83s34.25-14.65,34.25-34.83c0-1.54,0-2.88-.19-4.2-.27-1.62.25-3.02,1.51-4.12h-15.29c-6.85,0-11.63,4.78-11.63,11.63v.65h-16.89v-.65c0-16.22,11.25-27.55,27.35-27.55h28.27c12.95,0,22.35-9.15,22.35-21.77v-.65h17.09v.65c0,21.37-15.28,37.49-35.54,37.49h-.59c.45,2.65.65,5.32.65,8.51,0,29.26-22.07,51.33-51.33,51.33"/>
    <path id="compact_C" d="M112.3,524.89c0-41.35,29.89-70.46,71.82-70.46,16.11,0,31.44,3.69,45.61,12.42v29.7c-11.84-18.44-27.56-26.2-46.2-26.2-31.83,0-53.77,22.52-53.77,54.54s22.13,54.54,53.18,54.54c19.8,0,36.11-7.96,47.94-26.59v29.7c-14.56,8.93-30.09,12.81-49.3,12.81-39.79,0-69.3-29.12-69.3-70.46"/>
  </g>
  <g id="full_logo">
    <g id="full_year">
      <path id="y8-2" data-name="y8" d="M561.47,176.51c0-10.01-7.95-16.49-20.02-16.49s-20.02,6.48-20.02,16.49,7.95,16.63,20.02,16.63,20.02-6.92,20.02-16.63M564.71,224.21c0-11.33-9.42-19.28-23.26-19.28s-23.26,7.95-23.26,19.28,9.27,19.14,23.26,19.14,23.26-7.65,23.26-19.14M504.95,224.65c0-11.92,7.8-21.79,21.49-25.61-11.33-3.53-18.25-11.48-18.25-22.96,0-16.63,14.57-27.82,33.27-27.82s33.27,11.19,33.27,27.82c0,11.48-6.92,19.43-16.48,22.96,11.92,3.83,19.72,13.69,19.72,25.61,0,19.43-16.34,30.47-36.51,30.47s-36.51-11.04-36.51-30.47" fill="#231f20"/>
      <path id="y5-2" data-name="y5" d="M425.61,248.05v-21.05c8.68,11.33,17.22,16.34,28.41,16.34,14.13,0,23.55-8.1,23.55-20.17s-9.42-19.87-24.43-19.87c-7.07,0-15.31,1.47-24.44,7.07l7.95-60.21h48.14l1.33,9.42,1.32,9.71-22.52-7.36h-17.52l-3.98,30.77c3.68-.74,7.8-1.18,12.66-1.18,20.17,0,34.74,12.51,34.74,31.21,0,19.73-14.28,32.38-36.65,32.38-10.16,0-19.43-2.21-28.56-7.07" fill="#231f20"/>
      <polygon id="y7-2" data-name="y7" points="399.86 161.94 366.88 161.94 344.21 170.18 348.04 159.29 351.28 150.17 417.96 150.17 417.96 150.75 380.13 237.01 382.49 253.21 359.82 253.21 399.86 161.94" fill="#231f20"/>
      <polygon id="y1-2" data-name="y1" points="314.19 235.25 314.19 169.6 283.43 188.88 283.43 175.19 326.11 148.25 326.7 148.25 326.7 235.25 333.47 253.21 307.42 253.21 314.19 235.25" fill="#231f20"/>
    </g>
    <g id="full_est">
      <path id="est_T" d="M241.5,211.25v-11.68h-6.13l1.47-3.63h4.66v-6.43l4.17-1.32v7.75h9.72l-1.47,3.63h-8.24v11.19c0,3.98,1.86,5.64,4.71,5.64,2.16,0,3.73-.98,5.05-2.6v5.1c-1.52.98-3.48,1.23-5.15,1.23-6.28,0-8.78-3.73-8.78-8.88" fill="#231f20"/>
      <path id="est_S" d="M215.74,217.98v-6.23c2.7,3.38,5.45,4.66,8.88,4.66,2.36,0,4.71-.78,4.71-3.24,0-2.21-2.45-2.85-5.25-3.48-4.27-.98-8.34-2.26-8.34-7.07s4.07-7.21,8.88-7.21c2.65,0,5.54.49,7.85,2.01v6.18c-2.6-3.09-4.91-4.47-8.1-4.47-2.65,0-4.51,1.23-4.51,3.19,0,2.21,2.45,2.85,5.25,3.48,4.27.98,8.34,2.26,8.34,7.06s-4.17,7.26-8.88,7.26c-2.99,0-6.23-.54-8.83-2.16" fill="#231f20"/>
      <polygon id="est_E" points="187.73 219.5 189.88 213.8 189.88 190.84 187.73 185.15 209.27 185.15 210.3 188.19 211.52 191.87 204.02 189.07 194.05 189.07 194.05 199.33 208.92 199.33 207.45 203.26 194.05 203.26 194.05 215.57 203.72 215.57 211.82 212.77 210.59 216.45 209.56 219.5 187.73 219.5" fill="#231f20"/>
    </g>
    <g id="full_wordmark">
      <path id="full_S" d="M796.35,97.74v-22.82c8.68,13.1,20.02,19.87,33.56,19.87,12.66,0,20.61-6.77,20.61-17.37s-6.33-14.72-23.85-20.31c-22.23-7.07-29.88-15.6-29.88-29.74C796.79,10.75,810.48,0,831.38,0c10.01,0,20.46,2.5,29.59,7.21v22.08c-8.69-11.92-18.25-17.22-30.91-17.22-11.92,0-20.31,6.03-20.31,14.42,0,9.42,5.15,13.84,23.11,19.58,21.93,6.92,30.62,15.6,30.62,30.47,0,18.11-13.54,30.32-34,30.32-11.48,0-22.23-2.94-33.12-9.13" fill="#231f20"/>
      <path id="full_G" d="M679.62,53.43c0-31.35,22.96-53.43,55.79-53.43,13.54,0,25.61,2.8,36.8,9.42v22.52c-9.57-13.98-22.23-19.87-36.51-19.87-26.05,0-42.84,17.07-42.84,41.36s16.34,41.36,39.6,41.36c12.95,0,23.99-4.71,31.06-12.07v-25.61h-33.41l4.86-11.19h44.31l-2.8,17.66v23.99c-9.27,11.19-25.32,19.28-44.01,19.28-30.18,0-52.85-22.08-52.85-53.43" fill="#231f20"/>
      <polygon id="full_N" points="576.59 87.88 576.59 17.22 570.11 1.91 590.57 1.91 648.42 83.32 648.42 18.99 641.95 1.91 667.12 1.91 660.64 18.99 660.64 104.95 648.13 104.95 588.81 21.49 588.81 87.88 595.28 104.95 570.11 104.95 576.59 87.88" fill="#231f20"/>
      <polygon id="full_I" points="536.7 87.88 536.7 18.99 530.22 1.91 555.69 1.91 549.21 18.99 549.21 87.88 555.69 104.95 530.22 104.95 536.7 87.88" fill="#231f20"/>
      <polygon id="full_K" points="494.73 104.96 487.96 90.53 452.92 53.58 452.92 87.88 459.4 104.96 433.94 104.96 440.41 87.88 440.41 18.99 433.94 1.91 459.4 1.91 452.92 18.99 452.92 45.63 485.9 15.31 493.7 1.91 518.28 1.91 466.47 49.76 518.43 104.96 494.73 104.96" fill="#231f20"/>
      <path id="full_amp" d="M377.55,13.44l5.43-12.51h-54.05v14.24l9.58,18.26c-12.76,6.37-20.66,19.55-20.66,34.51,0,22.19,16.73,38.93,38.92,38.93s38.93-16.74,38.93-38.93c0-2.42-.15-4.44-.5-6.46h.45c15.37,0,26.95-12.22,26.95-28.43v-.49h-12.96v.49c0,9.56-7.13,16.51-16.95,16.51h-21.44c-12.21,0-20.74,8.59-20.74,20.89v.49h12.81v-.49c0-5.19,3.63-8.82,8.82-8.82h11.6c-.96.84-1.35,1.9-1.14,3.12.14,1,.14,2.01.14,3.18,0,15.3-10.92,26.41-25.97,26.41s-25.97-11.11-25.97-26.41c0-12.12,6.45-21.27,17.71-25.11l2.4-.86v-12.17l-7.3-14.71-1.28-2.46c1.08.54,2.25.82,3.5.82h31.72Z" fill="#231f20"/>
      <polygon id="full_X" points="224.62 88.32 250.52 52.99 225.2 18.55 210.93 1.92 235.36 1.92 240.22 17.81 259.21 43.72 278.34 17.81 283.35 1.92 307.34 1.92 293.06 18.55 267.75 52.7 293.65 88.32 307.93 104.96 283.5 104.96 278.64 89.06 258.91 61.97 239.04 89.06 234.18 104.96 210.34 104.96 224.62 88.32" fill="#231f20"/>
      <path id="full_O" d="M195.77,53.43c0-24.29-17.07-41.36-40.33-41.36s-40.33,17.07-40.33,41.36,17.08,41.36,40.33,41.36,40.33-17.07,40.33-41.36M101.86,53.43C101.86,22.08,125.26,0,155.44,0s53.58,22.08,53.58,53.43-23.4,53.43-53.58,53.43-53.58-22.08-53.58-53.43" fill="#231f20"/>
      <path id="full_C" d="M0,53.43C0,22.08,22.67,0,54.47,0c12.22,0,23.85,2.8,34.59,9.42v22.52c-8.98-13.98-20.9-19.87-35.03-19.87-24.14,0-40.77,17.07-40.77,41.36s16.78,41.36,40.33,41.36c15.02,0,27.38-6.04,36.36-20.17v22.52c-11.04,6.77-22.82,9.71-37.39,9.71C22.38,106.87,0,84.79,0,53.43" fill="#231f20"/>
    </g>
  </g>
</svg>