<?xml version="1.0" encoding="UTF-8"?>
<svg id="Layer_2" data-name="Layer 2" xmlns="http://www.w3.org/2000/svg" viewBox="0 0 501.97 141.73">
  <g id="Layer_1-2" data-name="Layer 1">
    <g id="logo-inline">
      <polygon points="304.77 53.89 304.77 14.61 286.36 26.15 286.36 17.96 311.91 1.84 312.26 1.84 312.26 53.89 316.31 64.64 300.72 64.64 304.77 53.89"/>
      <polygon points="356.03 10.03 336.3 10.03 322.74 14.96 325.03 8.44 326.97 2.98 366.87 2.98 366.87 3.33 344.23 54.95 345.64 64.64 332.07 64.64 356.03 10.03"/>
      <g>
        <path d="M280.41,137.5v-12.6c5.2,6.78,10.31,9.78,17,9.78,8.46,0,14.09-4.85,14.09-12.07s-5.64-11.89-14.62-11.89c-4.23,0-9.16.88-14.62,4.23l4.76-36.03h28.8l.79,5.64.79,5.81-13.48-4.4h-10.48l-2.38,18.41c2.2-.44,4.67-.71,7.58-.71,12.07,0,20.79,7.49,20.79,18.67,0,11.8-8.55,19.38-21.93,19.38-6.08,0-11.63-1.32-17.09-4.23"/>
        <path d="M361.71,94.69c0-5.99-4.76-9.86-11.98-9.86s-11.98,3.88-11.98,9.86,4.76,9.95,11.98,9.95,11.98-4.14,11.98-9.95M363.65,123.23c0-6.78-5.64-11.54-13.92-11.54s-13.92,4.76-13.92,11.54,5.55,11.45,13.92,11.45,13.92-4.58,13.92-11.45M327.88,123.5c0-7.14,4.67-13.04,12.86-15.33-6.78-2.11-10.92-6.87-10.92-13.74,0-9.95,8.72-16.65,19.91-16.65s19.91,6.7,19.91,16.65c0,6.87-4.14,11.63-9.86,13.74,7.14,2.29,11.8,8.19,11.8,15.33,0,11.63-9.78,18.23-21.84,18.23s-21.84-6.61-21.84-18.23"/>
        <path d="M0,70.46C0,29.12,29.89,0,71.82,0c16.11,0,31.44,3.69,45.61,12.42v29.7c-11.84-18.44-27.57-26.2-46.2-26.2-31.83,0-53.77,22.52-53.77,54.54s22.13,54.54,53.18,54.54c19.8,0,36.1-7.96,47.95-26.59v29.7c-14.56,8.93-30.09,12.81-49.3,12.81C29.51,140.92,0,111.81,0,70.46"/>
      </g>
      <polygon points="470.71 139.19 461.79 120.16 415.59 71.44 415.59 116.67 424.13 139.19 390.55 139.19 399.09 116.67 399.09 25.83 390.55 3.31 424.13 3.31 415.59 25.83 415.59 60.96 459.07 20.97 469.36 3.31 501.77 3.31 433.45 66.39 501.97 139.19 470.71 139.19"/>
      <path d="M185.13,140.92c-29.26,0-51.33-22.07-51.33-51.33,0-19.73,10.42-37.11,27.25-45.51l-12.63-24.08V1.23h71.28v20.01h-1.27l-.18-.15c-2.73-2.23-6.46-3.36-11.09-3.36h-36.45c-1.65,0-3.2-.36-4.62-1.08l1.69,3.25,9.62,19.4v16.05l-3.16,1.13c-14.84,5.06-23.35,17.13-23.35,33.11,0,20.18,14.4,34.83,34.24,34.83s34.25-14.65,34.25-34.83c0-1.54,0-2.88-.19-4.2-.27-1.62.25-3.02,1.51-4.12h-15.29c-6.85,0-11.63,4.78-11.63,11.63v.65h-16.89v-.65c0-16.22,11.25-27.55,27.35-27.55h28.27c12.95,0,22.35-9.16,22.35-21.77v-.65h17.09v.65c0,21.37-15.28,37.49-35.54,37.49h-.59c.45,2.65.65,5.32.65,8.51,0,29.26-22.07,51.33-51.33,51.33"/>
    </g>
  </g>
</svg>