<?xml version="1.0" encoding="UTF-8"?>
<svg id="Layer_2" data-name="Layer 2" xmlns="http://www.w3.org/2000/svg" viewBox="0 0 478.29 396.85">
  <g id="Layer_1-2" data-name="Layer 1">
    <g id="logo-mark">
      <path d="M383.75,100.93h-3.15v-20.42c-.12,0-.23,0-.35,0-8.8,0-18.35,6.06-18.76,23.08l-.05,1.96-1.78.83c-22.37,10.35-41.19,34.23-50.35,63.89l-4.7,15.31c-2.98-11.74-2.33-21.07-2.33-21.07,1.76-50.15,34.48-93.09,67.9-122.34l.47-17.33,83.46,71.41-2.69,4.68h-67.65ZM360.86,243.35s-11.47,14.38-25.38,17.57c-27.6-59.56-1.47-119.81,31.31-139.26,10.78,38.5,21.89,89.61-5.92,121.69M178.33,230.23l.85,20.86,9.56,4.05,3.07,1.13-1.29,3.01c-3.53,8.65-8.66,15.84-15.27,21.38-10.77,9.04-25.51,13.84-43.82,14.27l-6.25.14,3.6-5.12c6.58-9.34,10.06-20.55,10.06-32.4l.34-54.01c0-14.21,10.32-24.53,24.54-24.53l118.89-.17c3.22,44.3,29.75,88.03,29.75,88.03-56.92-4.18-134.04-36.63-134.04-36.63M52.57,257.55l.33-54.02c0-13.09,6.74-24.36,29.28-24.36-.66,1.21-1.28,2.45-1.83,3.74l-.44,1.05c-2.13,5.41-3.21,11.31-3.21,17.55v46.24c0,24.71-6.67,47.36-28.86,47.36l-7.26-.04s11.99-12.09,11.99-37.52M125.51,179.17c-3.53,6.38-5.49,13.94-5.49,22.34v49.24c0,9.65-2.67,18.58-7.72,25.84-4.71,6.76-11.31,11.84-19.1,14.71v70.77l-.2.54-12.91,34.23h33.62v-83.47l3.39.26c4.4.34,8.21.5,11.63.5,18.58,0,34.67-3.77,47.84-11.22l.04-.02c1.12-.64,2.22-1.3,3.29-1.98l45.15,63.16.31.43.16.51,9.73,31.84h43.18l-26.13-30.45-.09-.1-.07-.1-47.08-65.9h-24.24c2.52-1.65,4.9-3.4,7.08-5.25,9.1-7.74,16.07-17.63,20.7-29.39l1.13-2.86,2.89,1.05.48.18c3.99,1.24,8.14,2.57,12.31,3.89,27.82,8.88,56.59,18.05,85.76,18.05,4.53,0,9.03-.22,13.38-.66l1.8-.18,1.06,1.46,56.51,77.47.31.43.16.51,9.73,31.84h43.18l-26.13-30.45-.08-.09-.07-.1-61.78-84.3-2.07-2.82,3.01-1.77c19.3-12.82,30.75-24.09,39.59-41.09,3.93-7.67,5.28-12.77,5.28-12.77l15.33,19.33h11.99l-2.08,4.48-13.32,28.81-.36.79-.73.49-21.7,14.72,24.89,30.43,45.27-99.52h-59.1s.8-1.24,1.26-3.06l.16-.78c7.08-35.14-1.14-63.99-10.05-94.41l-1.18-4.04h77.42l15.43-30.5L369.39,0l-24.94,24.83c-43.78,41.74-57.75,85.58-61.56,133.39l-119.16-.07c-17.25,0-31.01,8.02-38.21,21l-15.1-20.91h-36.12c-24.04,1.4-40.55,18.8-40.55,43.27v49.24c0,22.98-13.77,56.3-33.75,62.83h37.66c33.83,0,57.87-24.18,57.87-56.04l.34-54.02c0-13.96,3.91-24.36,29.65-24.36"/>
    </g>
  </g>
</svg>