<?xml version="1.0" encoding="UTF-8"?>
<svg id="Layer_2" data-name="Layer 2" xmlns="http://www.w3.org/2000/svg" viewBox="0 0 863.47 255.12">
  <g id="Layer_1-2" data-name="Layer 1">
    <g id="logo-stacked">
      <g>
        <path d="M0,53.43C0,22.08,22.67,0,54.47,0c12.22,0,23.85,2.8,34.59,9.42v22.52c-8.98-13.98-20.9-19.87-35.04-19.87-24.14,0-40.77,17.07-40.77,41.36s16.78,41.36,40.33,41.36c15.02,0,27.38-6.04,36.36-20.17v22.52c-11.04,6.77-22.82,9.71-37.39,9.71C22.38,106.87,0,84.79,0,53.43"/>
        <path d="M195.77,53.43c0-24.29-17.08-41.36-40.33-41.36s-40.33,17.07-40.33,41.36,17.08,41.36,40.33,41.36,40.33-17.07,40.33-41.36M101.86,53.43C101.86,22.08,125.26,0,155.44,0s53.58,22.08,53.58,53.43-23.4,53.43-53.58,53.43-53.58-22.08-53.58-53.43"/>
      </g>
      <polygon points="224.62 88.32 250.52 52.99 225.2 18.55 210.93 1.92 235.36 1.92 240.22 17.81 259.21 43.72 278.34 17.81 283.35 1.92 307.34 1.92 293.06 18.55 267.75 52.7 293.65 88.32 307.93 104.96 283.5 104.96 278.64 89.06 258.91 61.97 239.04 89.06 234.18 104.96 210.34 104.96 224.62 88.32"/>
      <polygon points="494.73 104.96 487.96 90.53 452.92 53.58 452.92 87.88 459.4 104.96 433.94 104.96 440.41 87.88 440.41 18.99 433.94 1.92 459.4 1.92 452.92 18.99 452.92 45.63 485.9 15.31 493.7 1.92 518.28 1.92 466.47 49.76 518.43 104.96 494.73 104.96"/>
      <polygon points="536.7 87.88 536.7 18.99 530.22 1.91 555.69 1.91 549.21 18.99 549.21 87.88 555.69 104.95 530.22 104.95 536.7 87.88"/>
      <polygon points="576.59 87.88 576.59 17.22 570.11 1.91 590.57 1.91 648.42 83.32 648.42 18.99 641.95 1.91 667.12 1.91 660.64 18.99 660.64 104.95 648.13 104.95 588.81 21.49 588.81 87.88 595.28 104.95 570.11 104.95 576.59 87.88"/>
      <g>
        <path d="M679.62,53.43c0-31.35,22.96-53.43,55.79-53.43,13.54,0,25.61,2.8,36.8,9.42v22.52c-9.57-13.98-22.23-19.87-36.51-19.87-26.05,0-42.84,17.07-42.84,41.36s16.34,41.36,39.6,41.36c12.95,0,23.99-4.71,31.06-12.07v-25.61h-33.41l4.86-11.19h44.31l-2.8,17.66v23.99c-9.27,11.19-25.32,19.28-44.01,19.28-30.18,0-52.84-22.08-52.84-53.43"/>
        <path d="M796.35,97.74v-22.82c8.69,13.1,20.02,19.87,33.56,19.87,12.66,0,20.61-6.77,20.61-17.37s-6.33-14.72-23.84-20.31c-22.23-7.07-29.88-15.6-29.88-29.73,0-16.63,13.69-27.38,34.59-27.38,10.01,0,20.46,2.5,29.59,7.21v22.08c-8.68-11.92-18.25-17.22-30.91-17.22-11.92,0-20.31,6.03-20.31,14.42,0,9.42,5.15,13.84,23.11,19.58,21.93,6.92,30.62,15.6,30.62,30.47,0,18.11-13.54,30.32-34,30.32-11.48,0-22.23-2.94-33.12-9.13"/>
      </g>
      <polygon points="187.73 219.5 189.88 213.8 189.88 190.84 187.73 185.15 209.27 185.15 210.3 188.19 211.52 191.87 204.02 189.07 194.05 189.07 194.05 199.33 208.92 199.33 207.45 203.26 194.05 203.26 194.05 215.57 203.72 215.57 211.82 212.77 210.59 216.45 209.56 219.5 187.73 219.5"/>
      <g>
        <path d="M215.74,217.98v-6.23c2.7,3.38,5.45,4.66,8.88,4.66,2.36,0,4.71-.79,4.71-3.24,0-2.21-2.45-2.85-5.25-3.48-4.27-.98-8.34-2.26-8.34-7.07s4.07-7.21,8.88-7.21c2.65,0,5.54.49,7.85,2.01v6.18c-2.6-3.09-4.91-4.46-8.1-4.46-2.65,0-4.51,1.23-4.51,3.19,0,2.21,2.45,2.85,5.25,3.48,4.27.98,8.34,2.26,8.34,7.07s-4.17,7.26-8.88,7.26c-2.99,0-6.23-.54-8.83-2.16"/>
        <path d="M241.5,211.25v-11.68h-6.13l1.47-3.63h4.66v-6.43l4.17-1.33v7.75h9.71l-1.47,3.63h-8.24v11.19c0,3.98,1.86,5.64,4.71,5.64,2.16,0,3.73-.98,5.05-2.6v5.1c-1.52.98-3.48,1.23-5.15,1.23-6.28,0-8.78-3.73-8.78-8.88"/>
      </g>
      <polygon points="314.19 235.25 314.19 169.6 283.43 188.88 283.43 175.19 326.11 148.25 326.7 148.25 326.7 235.25 333.47 253.21 307.42 253.21 314.19 235.25"/>
      <polygon points="399.86 161.94 366.88 161.94 344.21 170.18 348.04 159.29 351.28 150.17 417.96 150.17 417.96 150.75 380.13 237.01 382.49 253.21 359.82 253.21 399.86 161.94"/>
      <g>
        <path d="M425.61,248.05v-21.05c8.68,11.33,17.22,16.34,28.41,16.34,14.13,0,23.55-8.1,23.55-20.17s-9.42-19.87-24.43-19.87c-7.07,0-15.31,1.47-24.44,7.07l7.95-60.21h48.14l1.33,9.42,1.32,9.71-22.52-7.36h-17.52l-3.98,30.77c3.68-.74,7.8-1.18,12.66-1.18,20.17,0,34.74,12.51,34.74,31.21,0,19.73-14.28,32.38-36.65,32.38-10.16,0-19.43-2.21-28.56-7.07"/>
        <path d="M561.47,176.51c0-10.01-7.95-16.49-20.02-16.49s-20.02,6.48-20.02,16.49,7.95,16.63,20.02,16.63,20.02-6.92,20.02-16.63M564.71,224.21c0-11.33-9.42-19.28-23.26-19.28s-23.26,7.95-23.26,19.28,9.27,19.14,23.26,19.14,23.26-7.65,23.26-19.14M504.95,224.65c0-11.92,7.8-21.79,21.49-25.61-11.33-3.53-18.25-11.48-18.25-22.96,0-16.63,14.57-27.82,33.27-27.82s33.27,11.19,33.27,27.82c0,11.48-6.92,19.43-16.48,22.96,11.92,3.83,19.72,13.69,19.72,25.61,0,19.43-16.34,30.47-36.51,30.47s-36.51-11.04-36.51-30.47"/>
        <path d="M377.55,13.44l5.43-12.51h-54.05v14.24l9.58,18.26c-12.76,6.37-20.66,19.55-20.66,34.51,0,22.19,16.73,38.93,38.92,38.93s38.93-16.73,38.93-38.93c0-2.42-.15-4.44-.5-6.45h.45c15.36,0,26.95-12.22,26.95-28.43v-.49h-12.96v.49c0,9.57-7.13,16.51-16.95,16.51h-21.44c-12.21,0-20.74,8.59-20.74,20.89v.49h12.81v-.49c0-5.19,3.63-8.82,8.82-8.82h11.6c-.96.84-1.35,1.9-1.14,3.12.14,1,.14,2.01.14,3.18,0,15.3-10.92,26.41-25.97,26.41s-25.97-11.11-25.97-26.41c0-12.12,6.45-21.27,17.71-25.11l2.4-.86v-12.17l-7.3-14.71-1.28-2.46c1.08.54,2.25.82,3.5.82h31.72Z"/>
      </g>
    </g>
  </g>
</svg>