<?xml version="1.0" encoding="UTF-8"?>
<svg id="Layer_2" data-name="Layer 2" xmlns="http://www.w3.org/2000/svg" viewBox="0 0 205 293.56">
  <defs>
    <style>
      .cls-1 {
        fill: #0d0e1f;
      }
    </style>
  </defs>
  <g id="Layer_1-2" data-name="Layer 1">
    <path class="cls-1" d="M189.52,99.51v-9.44c0-12.66-11.22-23.15-25.47-24.34-.52-.76-1.05-1.5-1.6-2.24v-2.29c.32-40.49-44.52-38.19-59.95-61.2-15.43,23-60.26,20.7-59.95,61.2v2.28c-.55.74-1.09,1.49-1.61,2.25-14.24,1.2-25.47,11.69-25.47,24.34v9.44c-8.8,1.57-15.47,8.36-15.47,16.45v61.64c0,8.08,6.67,14.88,15.48,16.45v9.44c0,12.66,11.22,23.15,25.47,24.35.52.76,1.05,1.5,1.6,2.24v2.29c-.32,40.5,44.52,38.2,59.95,61.2,15.43-23,60.26-20.7,59.95-61.2v-2.28c.56-.74,1.1-1.49,1.62-2.25,14.24-1.2,25.46-11.69,25.46-24.35v-9.44c8.8-1.57,15.47-8.36,15.47-16.45v-61.64c0-8.08-6.67-14.88-15.48-16.45"/>
  </g>
</svg>