<svg width="280" height="364" viewBox="0 0 280 364" fill="none" xmlns="http://www.w3.org/2000/svg">
<path d="M190.243 21.0134C189.641 21.0134 189.052 21.0134 188.45 20.9677C171.586 20.3115 155.877 11.1095 140.829 0C125.721 10.9722 109.964 20.0368 93.0875 20.5556C92.4861 20.5709 91.8967 20.5862 91.2953 20.5862C76.2595 20.5251 60.5381 13.8716 44.8528 5.28007L1.41757 62.903L1.20105 63.1929L0.202677 64.5206L1.41757 62.903C52.8776 137.515 -53.6025 266.04 35.0736 318.666C71.8716 340.508 98.8391 337.5 139.855 362.158C139.181 362.86 138.508 363.562 137.846 364.279C138.52 363.562 139.181 362.86 139.855 362.158C179.339 339.361 207.932 341.103 244.864 319.551C332.133 268.637 229.09 136.735 279.868 64.1085L236.769 6.10412C221.048 14.5583 205.29 21.0745 190.243 21.0134Z" fill="#0D0E1F"/>
</svg>
